<?xml version="1.0" standalone="no"?>
<!DOCTYPE svg PUBLIC "-//W3C//DTD SVG 20010904//EN"
 "http://www.w3.org/TR/2001/REC-SVG-20010904/DTD/svg10.dtd">
<svg version="1.0" xmlns="http://www.w3.org/2000/svg"
 width="690.000000pt" height="690.000000pt" viewBox="0 0 690.000000 690.000000"
 preserveAspectRatio="xMidYMid meet">
<metadata>
Created by potrace 1.14, written by Peter Selinger 2001-2017
</metadata>
<g transform="translate(0.000000,690.000000) scale(0.100000,-0.100000)"
fill="#000000" stroke="none">
<path d="M5056 6002 c-16 -33 -28 -63 -27 -66 0 -3 -6 -14 -15 -23 -8 -10 -39
-54 -67 -97 -55 -84 -234 -277 -323 -347 -29 -24 -50 -47 -47 -52 3 -6 2 -8
-3 -4 -5 3 -66 -38 -135 -91 -68 -54 -161 -122 -206 -152 -45 -30 -79 -58 -77
-62 3 -4 -1 -5 -9 -2 -8 3 -20 -2 -27 -11 -7 -8 -18 -15 -25 -15 -8 0 -15 -3
-17 -8 -1 -4 -28 -23 -58 -42 -139 -87 -283 -218 -383 -348 -63 -82 -151 -248
-142 -269 2 -8 1 -12 -3 -9 -18 11 -77 -212 -89 -332 -15 -146 -3 -433 17
-440 6 -2 8 -7 6 -10 -2 -4 -1 -24 3 -45 l6 -37 28 25 c15 14 27 22 27 18 0
-4 4 -3 8 2 4 6 27 23 51 40 24 16 45 35 48 42 3 7 10 13 16 13 25 0 329 293
478 460 259 292 478 616 693 1022 11 20 23 35 28 32 4 -3 1 -19 -8 -35 -8 -17
-13 -37 -10 -45 3 -9 1 -12 -4 -9 -10 6 -13 -3 -13 -37 0 -10 -4 -15 -8 -12
-5 3 -10 0 -10 -5 -8 -63 -184 -393 -319 -597 -27 -41 -47 -74 -45 -74 2 0
-12 -17 -31 -37 -19 -21 -32 -44 -29 -51 3 -7 1 -11 -3 -8 -5 3 -26 -18 -48
-46 -21 -28 -43 -56 -49 -62 -6 -6 -21 -24 -33 -41 -46 -60 -149 -172 -262
-284 -63 -63 -114 -118 -112 -123 1 -4 -1 -7 -5 -6 -5 2 -62 -42 -128 -97 -67
-55 -136 -113 -155 -128 l-35 -28 85 6 c110 8 158 14 195 22 17 4 35 8 40 8
38 4 183 43 249 67 144 53 261 117 401 220 60 45 211 207 270 290 81 114 188
326 235 468 50 152 94 345 105 465 3 22 7 51 10 65 12 54 19 175 22 424 4 207
2 261 -9 267 -11 7 -11 9 0 9 7 0 11 3 9 8 -3 4 -8 45 -11 92 -4 47 -10 107
-14 134 l-7 49 -29 -61z m-739 -807 c0 -8 -4 -12 -9 -9 -5 3 -6 10 -3 15 9 13
12 11 12 -6z m-50 -790 c0 -8 -4 -12 -9 -9 -5 3 -6 10 -3 15 9 13 12 11 12 -6z"/>
<path d="M2150 4252 c0 -21 117 -241 172 -323 252 -377 588 -502 933 -348 l50
23 -85 17 c-183 36 -336 90 -504 177 -83 43 -246 154 -246 168 0 4 10 0 23 -8
209 -133 462 -240 681 -287 130 -29 140 -28 132 7 -18 74 -81 177 -155 252
-105 107 -203 152 -360 166 -287 25 -412 50 -527 104 -45 20 -84 42 -88 49 -8
13 -26 15 -26 3z"/>
<path d="M2892 3445 c-62 -14 -165 -60 -209 -95 -12 -10 -75 -68 -139 -129
-173 -165 -312 -263 -414 -292 -67 -19 -68 -25 -5 -44 200 -58 366 -81 522
-72 130 7 216 29 323 79 68 33 100 56 160 117 42 43 89 102 106 136 35 65 87
205 78 205 -4 0 -27 -17 -53 -38 -211 -173 -469 -297 -743 -356 -54 -12 -27 3
55 30 261 87 579 263 695 386 l22 24 -62 22 c-121 42 -228 50 -336 27z"/>
<path d="M3685 3396 c-84 -20 -254 -94 -220 -97 6 0 19 -2 30 -4 11 -2 58 -8
105 -15 179 -25 436 -115 589 -206 115 -68 156 -106 61 -55 -231 122 -504 208
-727 230 -59 6 -73 4 -73 -7 0 -30 77 -159 129 -214 131 -142 249 -185 511
-189 217 -3 379 -32 491 -88 33 -16 59 -25 59 -19 0 5 -16 40 -36 76 -163 297
-372 498 -599 577 -67 23 -240 29 -320 11z"/>
<path d="M990 2090 l0 -402 198 4 c189 3 200 4 247 29 90 46 132 141 111 254
-9 49 -68 112 -117 127 l-40 11 35 36 c43 44 56 78 56 141 0 85 -29 133 -105
173 -35 19 -60 22 -212 25 l-173 4 0 -402z m293 231 c53 -53 7 -141 -74 -141
l-39 0 0 86 0 87 46 -6 c28 -3 54 -13 67 -26z m22 -315 c37 -16 55 -42 55 -81
0 -61 -50 -95 -140 -95 l-50 0 0 95 0 95 50 0 c28 0 66 -6 85 -14z"/>
<path d="M1635 2481 c-3 -2 -5 -181 -5 -398 l0 -393 231 0 231 0 -4 78 -3 77
-137 3 -138 3 0 319 0 319 -85 -1 c-47 -1 -88 -4 -90 -7z"/>
<path d="M2172 2178 c3 -349 4 -350 76 -422 107 -108 389 -97 477 18 54 71 58
97 63 419 l4 297 -96 0 -95 0 -1 -270 c0 -148 -5 -281 -10 -294 -15 -40 -58
-66 -109 -66 -60 0 -92 17 -113 60 -16 31 -18 68 -18 303 l0 267 -90 0 -91 0
3 -312z"/>
<path d="M2890 2090 l0 -400 230 0 230 0 0 80 0 80 -140 0 -140 0 0 80 0 80
135 0 135 0 0 80 0 80 -135 0 -135 0 0 80 0 80 140 0 140 0 0 80 0 80 -230 0
-230 0 0 -400z"/>
<path d="M4190 2090 l0 -400 225 0 225 0 0 80 0 80 -135 0 -135 0 0 80 0 80
130 0 130 0 0 80 0 80 -130 0 -130 0 0 80 0 80 135 0 135 0 0 80 0 80 -225 0
-225 0 0 -400z"/>
<path d="M4833 2090 l-161 -401 96 3 96 3 29 78 30 77 153 0 153 0 28 -80 28
-80 97 0 97 0 -161 400 -162 400 -81 0 -81 0 -161 -400z m287 41 c22 -56 40
-107 40 -112 0 -5 -38 -9 -85 -9 -47 0 -85 4 -85 9 0 15 82 222 86 218 3 -2
22 -50 44 -106z"/>
<path d="M5510 2090 l0 -400 90 0 90 0 0 160 0 160 130 0 130 0 0 80 0 80
-130 0 -130 0 0 80 0 80 140 0 140 0 0 80 0 80 -230 0 -230 0 0 -400z"/>
<path d="M3650 2085 l0 -395 225 0 225 0 0 80 0 80 -140 0 -140 0 0 315 0 315
-85 0 -85 0 0 -395z"/>
</g>
</svg>
